<svg xmlns="http://www.w3.org/2000/svg" xmlns:xlink="http://www.w3.org/1999/xlink" width="40" height="40" viewBox="0 0 40 40">
  <defs>
    <linearGradient id="linear-gradient" x2="1" y2="1" gradientUnits="objectBoundingBox">
      <stop offset="0" stop-color="#4b65dc"/>
      <stop offset="1" stop-color="#ed4264"/>
    </linearGradient>
  </defs>
  <path id="quiz_FILL1_wght400_GRAD0_opsz48" d="M27.1,24.7a1.143,1.143,0,0,0,.8-.325,1.493,1.493,0,0,0,.45-.825,3.734,3.734,0,0,1,.55-1.4,10.122,10.122,0,0,1,1.4-1.55,9.988,9.988,0,0,0,1.875-2.275A4.727,4.727,0,0,0,32.7,16.05a4.864,4.864,0,0,0-1.575-3.75A5.85,5.85,0,0,0,27,10.85a6.136,6.136,0,0,0-2.95.725A5.471,5.471,0,0,0,21.9,13.65a.9.9,0,0,0-.05.875,1.411,1.411,0,0,0,.7.725,1.118,1.118,0,0,0,.9.025,1.559,1.559,0,0,0,.8-.625,3.87,3.87,0,0,1,1.225-1.125A3.087,3.087,0,0,1,27,13.15a3.443,3.443,0,0,1,2.425.85,2.794,2.794,0,0,1,.925,2.15,3.336,3.336,0,0,1-.45,1.75,5.994,5.994,0,0,1-1.6,1.6,10.457,10.457,0,0,0-1.775,1.975,4.644,4.644,0,0,0-.575,2.075.939.939,0,0,0,.3.825,1.2,1.2,0,0,0,.85.325Zm.05,6.3a2.049,2.049,0,1,0-1.45-.6A1.975,1.975,0,0,0,27.15,31ZM13,38a3.076,3.076,0,0,1-3-3V7a2.878,2.878,0,0,1,.9-2.1A2.878,2.878,0,0,1,13,4H41a2.878,2.878,0,0,1,2.1.9A2.878,2.878,0,0,1,44,7V35a3.076,3.076,0,0,1-3,3ZM7,44a2.878,2.878,0,0,1-2.1-.9A2.878,2.878,0,0,1,4,41V11.5A1.454,1.454,0,0,1,5.5,10,1.454,1.454,0,0,1,7,11.5V41H36.5a1.5,1.5,0,1,1,0,3Z" transform="translate(-4 -4)" fill="url(#linear-gradient)"/>
</svg>
