<svg xmlns="http://www.w3.org/2000/svg" xmlns:xlink="http://www.w3.org/1999/xlink" width="40" height="40" viewBox="0 0 40 40">
  <defs>
    <linearGradient id="linear-gradient" x2="1" y2="1" gradientUnits="objectBoundingBox">
      <stop offset="0" stop-color="#4b65dc"/>
      <stop offset="1" stop-color="#ed4264"/>
    </linearGradient>
  </defs>
  <path id="support_FILL1_wght400_GRAD0_opsz48" d="M24,44a19.475,19.475,0,0,1-7.8-1.575A19.969,19.969,0,0,1,5.575,31.8,19.475,19.475,0,0,1,4,24a19.475,19.475,0,0,1,1.575-7.8A19.969,19.969,0,0,1,16.2,5.575,19.475,19.475,0,0,1,24,4a19.475,19.475,0,0,1,7.8,1.575A19.969,19.969,0,0,1,42.425,16.2,19.475,19.475,0,0,1,44,24a19.475,19.475,0,0,1-1.575,7.8A19.969,19.969,0,0,1,31.8,42.425,19.475,19.475,0,0,1,24,44Zm-6.05-4,3.15-7.5a9,9,0,0,1-3.375-2.075A9.1,9.1,0,0,1,15.5,26.95l-7.5,3a20.265,20.265,0,0,0,4.1,6.15A16.689,16.689,0,0,0,17.95,40Zm-2.5-18.9a10.041,10.041,0,0,1,2.25-3.5,8.64,8.64,0,0,1,3.35-2.1l-3-7.5a19.054,19.054,0,0,0-6.35,4.175A15.17,15.17,0,0,0,8,18.1ZM24,30a5.975,5.975,0,0,0,6-6,5.975,5.975,0,0,0-6-6,5.975,5.975,0,0,0-6,6,5.975,5.975,0,0,0,6,6Zm6.05,10a17.724,17.724,0,0,0,6-3.975A18.314,18.314,0,0,0,40,30.05l-7.5-3.1a9.043,9.043,0,0,1-2.225,3.525A8.479,8.479,0,0,1,26.9,32.5ZM32.5,21.05l7.5-3.1A18.208,18.208,0,0,0,30.05,8L27,15.5a8.354,8.354,0,0,1,3.3,2.075A10.153,10.153,0,0,1,32.5,21.05Z" transform="translate(-4 -4)" fill="url(#linear-gradient)"/>
</svg>
