<svg xmlns="http://www.w3.org/2000/svg" xmlns:xlink="http://www.w3.org/1999/xlink" width="36" height="40" viewBox="0 0 36 40">
  <defs>
    <linearGradient id="linear-gradient" x2="1" y2="1" gradientUnits="objectBoundingBox">
      <stop offset="0" stop-color="#4b65dc"/>
      <stop offset="1" stop-color="#ed4264"/>
    </linearGradient>
  </defs>
  <path id="assignment_FILL1_wght400_GRAD0_opsz48" d="M15.5,34H26.15a1.5,1.5,0,1,0,0-3H15.5a1.5,1.5,0,1,0,0,3Zm0-8.5h17a1.5,1.5,0,1,0,0-3h-17a1.5,1.5,0,1,0,0,3Zm0-8.5h17a1.5,1.5,0,1,0,0-3h-17a1.5,1.5,0,1,0,0,3ZM9,42a2.988,2.988,0,0,1-3-3V9A2.988,2.988,0,0,1,9,6H19.25a4.437,4.437,0,0,1,1.6-2.875,4.972,4.972,0,0,1,6.3,0A4.437,4.437,0,0,1,28.75,6H39a2.988,2.988,0,0,1,3,3V39a2.988,2.988,0,0,1-3,3ZM24,8.15a1.679,1.679,0,0,0,1.225-.525,1.692,1.692,0,0,0,0-2.45,1.692,1.692,0,0,0-2.45,0,1.692,1.692,0,0,0,0,2.45A1.679,1.679,0,0,0,24,8.15Z" transform="translate(-6 -2)" fill="url(#linear-gradient)"/>
</svg>
