<svg width="37" height="36" viewBox="0 0 37 36" fill="none" xmlns="http://www.w3.org/2000/svg">
<g clip-path="url(#clip0_203_754)">
<path d="M22.0107 8.14658C21.8725 8.28427 21.7628 8.4479 21.688 8.62809C21.6131 8.80827 21.5746 9.00146 21.5746 9.19658C21.5746 9.39169 21.6131 9.58488 21.688 9.76506C21.7628 9.94525 21.8725 10.1089 22.0107 10.2466L27.7857 16.0216H5.20675C4.81269 16.0229 4.43512 16.1799 4.15638 16.4585C3.87764 16.7371 3.72033 17.1145 3.71875 17.5086C3.72086 17.9023 3.8784 18.2792 4.15708 18.5574C4.43577 18.8355 4.81303 18.9923 5.20675 18.9936H27.8008L22.0257 24.7686C21.8875 24.9063 21.7778 25.0699 21.703 25.2501C21.6281 25.4303 21.5896 25.6235 21.5896 25.8186C21.5896 26.0137 21.6281 26.2069 21.703 26.3871C21.7778 26.5672 21.8875 26.7309 22.0257 26.8686C22.1634 27.0068 22.3271 27.1165 22.5073 27.1913C22.6874 27.2662 22.8806 27.3047 23.0758 27.3047C23.2709 27.3047 23.4641 27.2662 23.6442 27.1913C23.8244 27.1165 23.9881 27.0068 24.1257 26.8686L32.4457 18.5486C32.584 18.4109 32.6937 18.2473 32.7685 18.0671C32.8434 17.8869 32.8819 17.6937 32.8819 17.4986C32.8819 17.3035 32.8434 17.1103 32.7685 16.9301C32.6937 16.7499 32.584 16.5863 32.4457 16.4486L24.1098 8.14658C23.9721 8.00849 23.8085 7.89893 23.6284 7.82417C23.4483 7.74942 23.2552 7.71094 23.0602 7.71094C22.8653 7.71094 22.6722 7.74942 22.4921 7.82417C22.312 7.89893 22.1484 8.00849 22.0107 8.14658Z" fill="white"/>
</g>
<defs>
<clipPath id="clip0_203_754">
<rect width="36" height="36" fill="white" transform="translate(0.5)"/>
</clipPath>
</defs>
</svg>
