<svg width="122" height="120" viewBox="0 0 122 120" fill="none" xmlns="http://www.w3.org/2000/svg">
<g clip-path="url(#clip0_152_1802)">
<path d="M5.45312 8C7.66226 8 9.45312 6.20914 9.45312 4C9.45312 1.79086 7.66226 0 5.45312 0C3.24399 0 1.45312 1.79086 1.45312 4C1.45312 6.20914 3.24399 8 5.45312 8Z" fill="#347FF6"/>
<path d="M33.4531 8C35.6623 8 37.4531 6.20914 37.4531 4C37.4531 1.79086 35.6623 0 33.4531 0C31.244 0 29.4531 1.79086 29.4531 4C29.4531 6.20914 31.244 8 33.4531 8Z" fill="#347FF6"/>
<path d="M61.4531 8C63.6623 8 65.4531 6.20914 65.4531 4C65.4531 1.79086 63.6623 0 61.4531 0C59.244 0 57.4531 1.79086 57.4531 4C57.4531 6.20914 59.244 8 61.4531 8Z" fill="#347FF6"/>
<path d="M89.4531 8C91.6623 8 93.4531 6.20914 93.4531 4C93.4531 1.79086 91.6623 0 89.4531 0C87.244 0 85.4531 1.79086 85.4531 4C85.4531 6.20914 87.244 8 89.4531 8Z" fill="#347FF6"/>
<path d="M117.453 8C119.662 8 121.453 6.20914 121.453 4C121.453 1.79086 119.662 0 117.453 0C115.244 0 113.453 1.79086 113.453 4C113.453 6.20914 115.244 8 117.453 8Z" fill="#347FF6"/>
<path d="M5.45312 36C7.66226 36 9.45312 34.2091 9.45312 32C9.45312 29.7909 7.66226 28 5.45312 28C3.24399 28 1.45312 29.7909 1.45312 32C1.45312 34.2091 3.24399 36 5.45312 36Z" fill="#347FF6"/>
<path d="M33.4531 36C35.6623 36 37.4531 34.2091 37.4531 32C37.4531 29.7909 35.6623 28 33.4531 28C31.244 28 29.4531 29.7909 29.4531 32C29.4531 34.2091 31.244 36 33.4531 36Z" fill="#347FF6"/>
<path d="M61.4531 36C63.6623 36 65.4531 34.2091 65.4531 32C65.4531 29.7909 63.6623 28 61.4531 28C59.244 28 57.4531 29.7909 57.4531 32C57.4531 34.2091 59.244 36 61.4531 36Z" fill="#347FF6"/>
<path d="M89.4531 36C91.6623 36 93.4531 34.2091 93.4531 32C93.4531 29.7909 91.6623 28 89.4531 28C87.244 28 85.4531 29.7909 85.4531 32C85.4531 34.2091 87.244 36 89.4531 36Z" fill="#347FF6"/>
<path d="M117.453 36C119.662 36 121.453 34.2091 121.453 32C121.453 29.7909 119.662 28 117.453 28C115.244 28 113.453 29.7909 113.453 32C113.453 34.2091 115.244 36 117.453 36Z" fill="#347FF6"/>
<path d="M5.45312 64C7.66226 64 9.45312 62.2091 9.45312 60C9.45312 57.7909 7.66226 56 5.45312 56C3.24399 56 1.45312 57.7909 1.45312 60C1.45312 62.2091 3.24399 64 5.45312 64Z" fill="#347FF6"/>
<path d="M33.4531 64C35.6623 64 37.4531 62.2091 37.4531 60C37.4531 57.7909 35.6623 56 33.4531 56C31.244 56 29.4531 57.7909 29.4531 60C29.4531 62.2091 31.244 64 33.4531 64Z" fill="#347FF6"/>
<path d="M61.4531 64C63.6623 64 65.4531 62.2091 65.4531 60C65.4531 57.7909 63.6623 56 61.4531 56C59.244 56 57.4531 57.7909 57.4531 60C57.4531 62.2091 59.244 64 61.4531 64Z" fill="#347FF6"/>
<path d="M89.4531 64C91.6623 64 93.4531 62.2091 93.4531 60C93.4531 57.7909 91.6623 56 89.4531 56C87.244 56 85.4531 57.7909 85.4531 60C85.4531 62.2091 87.244 64 89.4531 64Z" fill="#347FF6"/>
<path d="M117.453 64C119.662 64 121.453 62.2091 121.453 60C121.453 57.7909 119.662 56 117.453 56C115.244 56 113.453 57.7909 113.453 60C113.453 62.2091 115.244 64 117.453 64Z" fill="#347FF6"/>
<path d="M5.45312 92C7.66226 92 9.45312 90.2091 9.45312 88C9.45312 85.7909 7.66226 84 5.45312 84C3.24399 84 1.45312 85.7909 1.45312 88C1.45312 90.2091 3.24399 92 5.45312 92Z" fill="#347FF6"/>
<path d="M33.4531 92C35.6623 92 37.4531 90.2091 37.4531 88C37.4531 85.7909 35.6623 84 33.4531 84C31.244 84 29.4531 85.7909 29.4531 88C29.4531 90.2091 31.244 92 33.4531 92Z" fill="#347FF6"/>
<path d="M61.4531 92C63.6623 92 65.4531 90.2091 65.4531 88C65.4531 85.7909 63.6623 84 61.4531 84C59.244 84 57.4531 85.7909 57.4531 88C57.4531 90.2091 59.244 92 61.4531 92Z" fill="#347FF6"/>
<path d="M89.4531 92C91.6623 92 93.4531 90.2091 93.4531 88C93.4531 85.7909 91.6623 84 89.4531 84C87.244 84 85.4531 85.7909 85.4531 88C85.4531 90.2091 87.244 92 89.4531 92Z" fill="#347FF6"/>
<path d="M117.453 92C119.662 92 121.453 90.2091 121.453 88C121.453 85.7909 119.662 84 117.453 84C115.244 84 113.453 85.7909 113.453 88C113.453 90.2091 115.244 92 117.453 92Z" fill="#347FF6"/>
<path d="M5.45312 120C7.66226 120 9.45312 118.209 9.45312 116C9.45312 113.791 7.66226 112 5.45312 112C3.24399 112 1.45312 113.791 1.45312 116C1.45312 118.209 3.24399 120 5.45312 120Z" fill="#347FF6"/>
<path d="M33.4531 120C35.6623 120 37.4531 118.209 37.4531 116C37.4531 113.791 35.6623 112 33.4531 112C31.244 112 29.4531 113.791 29.4531 116C29.4531 118.209 31.244 120 33.4531 120Z" fill="#347FF6"/>
<path d="M61.4531 120C63.6623 120 65.4531 118.209 65.4531 116C65.4531 113.791 63.6623 112 61.4531 112C59.244 112 57.4531 113.791 57.4531 116C57.4531 118.209 59.244 120 61.4531 120Z" fill="#347FF6"/>
<path d="M89.4531 120C91.6623 120 93.4531 118.209 93.4531 116C93.4531 113.791 91.6623 112 89.4531 112C87.244 112 85.4531 113.791 85.4531 116C85.4531 118.209 87.244 120 89.4531 120Z" fill="#347FF6"/>
<path d="M117.453 120C119.662 120 121.453 118.209 121.453 116C121.453 113.791 119.662 112 117.453 112C115.244 112 113.453 113.791 113.453 116C113.453 118.209 115.244 120 117.453 120Z" fill="#347FF6"/>
</g>
<defs>
<clipPath id="clip0_152_1802">
<rect width="120" height="120" fill="white" transform="translate(1.45312)"/>
</clipPath>
</defs>
</svg>
