<svg width="120" height="121" viewBox="0 0 120 121" fill="none" xmlns="http://www.w3.org/2000/svg">
<g clip-path="url(#clip0_145_1208)">
<path d="M4 8.5C6.20914 8.5 8 6.70914 8 4.5C8 2.29086 6.20914 0.5 4 0.5C1.79086 0.5 0 2.29086 0 4.5C0 6.70914 1.79086 8.5 4 8.5Z" fill="#347FF6"/>
<path d="M32 8.5C34.2091 8.5 36 6.70914 36 4.5C36 2.29086 34.2091 0.5 32 0.5C29.7909 0.5 28 2.29086 28 4.5C28 6.70914 29.7909 8.5 32 8.5Z" fill="#347FF6"/>
<path d="M60 8.5C62.2091 8.5 64 6.70914 64 4.5C64 2.29086 62.2091 0.5 60 0.5C57.7909 0.5 56 2.29086 56 4.5C56 6.70914 57.7909 8.5 60 8.5Z" fill="#347FF6"/>
<path d="M88 8.5C90.2091 8.5 92 6.70914 92 4.5C92 2.29086 90.2091 0.5 88 0.5C85.7909 0.5 84 2.29086 84 4.5C84 6.70914 85.7909 8.5 88 8.5Z" fill="#347FF6"/>
<path d="M116 8.5C118.209 8.5 120 6.70914 120 4.5C120 2.29086 118.209 0.5 116 0.5C113.791 0.5 112 2.29086 112 4.5C112 6.70914 113.791 8.5 116 8.5Z" fill="#347FF6"/>
<path d="M4 36.5C6.20914 36.5 8 34.7091 8 32.5C8 30.2909 6.20914 28.5 4 28.5C1.79086 28.5 0 30.2909 0 32.5C0 34.7091 1.79086 36.5 4 36.5Z" fill="#347FF6"/>
<path d="M32 36.5C34.2091 36.5 36 34.7091 36 32.5C36 30.2909 34.2091 28.5 32 28.5C29.7909 28.5 28 30.2909 28 32.5C28 34.7091 29.7909 36.5 32 36.5Z" fill="#347FF6"/>
<path d="M60 36.5C62.2091 36.5 64 34.7091 64 32.5C64 30.2909 62.2091 28.5 60 28.5C57.7909 28.5 56 30.2909 56 32.5C56 34.7091 57.7909 36.5 60 36.5Z" fill="#347FF6"/>
<path d="M88 36.5C90.2091 36.5 92 34.7091 92 32.5C92 30.2909 90.2091 28.5 88 28.5C85.7909 28.5 84 30.2909 84 32.5C84 34.7091 85.7909 36.5 88 36.5Z" fill="#347FF6"/>
<path d="M116 36.5C118.209 36.5 120 34.7091 120 32.5C120 30.2909 118.209 28.5 116 28.5C113.791 28.5 112 30.2909 112 32.5C112 34.7091 113.791 36.5 116 36.5Z" fill="#347FF6"/>
<path d="M4 64.5C6.20914 64.5 8 62.7091 8 60.5C8 58.2909 6.20914 56.5 4 56.5C1.79086 56.5 0 58.2909 0 60.5C0 62.7091 1.79086 64.5 4 64.5Z" fill="#347FF6"/>
<path d="M32 64.5C34.2091 64.5 36 62.7091 36 60.5C36 58.2909 34.2091 56.5 32 56.5C29.7909 56.5 28 58.2909 28 60.5C28 62.7091 29.7909 64.5 32 64.5Z" fill="#347FF6"/>
<path d="M60 64.5C62.2091 64.5 64 62.7091 64 60.5C64 58.2909 62.2091 56.5 60 56.5C57.7909 56.5 56 58.2909 56 60.5C56 62.7091 57.7909 64.5 60 64.5Z" fill="#347FF6"/>
<path d="M88 64.5C90.2091 64.5 92 62.7091 92 60.5C92 58.2909 90.2091 56.5 88 56.5C85.7909 56.5 84 58.2909 84 60.5C84 62.7091 85.7909 64.5 88 64.5Z" fill="#347FF6"/>
<path d="M116 64.5C118.209 64.5 120 62.7091 120 60.5C120 58.2909 118.209 56.5 116 56.5C113.791 56.5 112 58.2909 112 60.5C112 62.7091 113.791 64.5 116 64.5Z" fill="#347FF6"/>
<path d="M4 92.5C6.20914 92.5 8 90.7091 8 88.5C8 86.2909 6.20914 84.5 4 84.5C1.79086 84.5 0 86.2909 0 88.5C0 90.7091 1.79086 92.5 4 92.5Z" fill="#347FF6"/>
<path d="M32 92.5C34.2091 92.5 36 90.7091 36 88.5C36 86.2909 34.2091 84.5 32 84.5C29.7909 84.5 28 86.2909 28 88.5C28 90.7091 29.7909 92.5 32 92.5Z" fill="#347FF6"/>
<path d="M60 92.5C62.2091 92.5 64 90.7091 64 88.5C64 86.2909 62.2091 84.5 60 84.5C57.7909 84.5 56 86.2909 56 88.5C56 90.7091 57.7909 92.5 60 92.5Z" fill="#347FF6"/>
<path d="M88 92.5C90.2091 92.5 92 90.7091 92 88.5C92 86.2909 90.2091 84.5 88 84.5C85.7909 84.5 84 86.2909 84 88.5C84 90.7091 85.7909 92.5 88 92.5Z" fill="#347FF6"/>
<path d="M116 92.5C118.209 92.5 120 90.7091 120 88.5C120 86.2909 118.209 84.5 116 84.5C113.791 84.5 112 86.2909 112 88.5C112 90.7091 113.791 92.5 116 92.5Z" fill="#347FF6"/>
<path d="M4 120.5C6.20914 120.5 8 118.709 8 116.5C8 114.291 6.20914 112.5 4 112.5C1.79086 112.5 0 114.291 0 116.5C0 118.709 1.79086 120.5 4 120.5Z" fill="#347FF6"/>
<path d="M32 120.5C34.2091 120.5 36 118.709 36 116.5C36 114.291 34.2091 112.5 32 112.5C29.7909 112.5 28 114.291 28 116.5C28 118.709 29.7909 120.5 32 120.5Z" fill="#347FF6"/>
<path d="M60 120.5C62.2091 120.5 64 118.709 64 116.5C64 114.291 62.2091 112.5 60 112.5C57.7909 112.5 56 114.291 56 116.5C56 118.709 57.7909 120.5 60 120.5Z" fill="#347FF6"/>
<path d="M88 120.5C90.2091 120.5 92 118.709 92 116.5C92 114.291 90.2091 112.5 88 112.5C85.7909 112.5 84 114.291 84 116.5C84 118.709 85.7909 120.5 88 120.5Z" fill="#347FF6"/>
<path d="M116 120.5C118.209 120.5 120 118.709 120 116.5C120 114.291 118.209 112.5 116 112.5C113.791 112.5 112 114.291 112 116.5C112 118.709 113.791 120.5 116 120.5Z" fill="#347FF6"/>
</g>
<defs>
<clipPath id="clip0_145_1208">
<rect width="120" height="120" fill="white" transform="translate(0 0.5)"/>
</clipPath>
</defs>
</svg>
