<svg width="122" height="121" viewBox="0 0 122 121" fill="none" xmlns="http://www.w3.org/2000/svg">
<g clip-path="url(#clip0_152_1708)">
<path d="M5.45312 8.9707C7.66226 8.9707 9.45312 7.17984 9.45312 4.9707C9.45312 2.76156 7.66226 0.970703 5.45312 0.970703C3.24399 0.970703 1.45312 2.76156 1.45312 4.9707C1.45312 7.17984 3.24399 8.9707 5.45312 8.9707Z" fill="#347FF6"/>
<path d="M33.4531 8.9707C35.6623 8.9707 37.4531 7.17984 37.4531 4.9707C37.4531 2.76156 35.6623 0.970703 33.4531 0.970703C31.244 0.970703 29.4531 2.76156 29.4531 4.9707C29.4531 7.17984 31.244 8.9707 33.4531 8.9707Z" fill="#347FF6"/>
<path d="M61.4531 8.9707C63.6623 8.9707 65.4531 7.17984 65.4531 4.9707C65.4531 2.76156 63.6623 0.970703 61.4531 0.970703C59.244 0.970703 57.4531 2.76156 57.4531 4.9707C57.4531 7.17984 59.244 8.9707 61.4531 8.9707Z" fill="#347FF6"/>
<path d="M89.4531 8.9707C91.6623 8.9707 93.4531 7.17984 93.4531 4.9707C93.4531 2.76156 91.6623 0.970703 89.4531 0.970703C87.244 0.970703 85.4531 2.76156 85.4531 4.9707C85.4531 7.17984 87.244 8.9707 89.4531 8.9707Z" fill="#347FF6"/>
<path d="M117.453 8.9707C119.662 8.9707 121.453 7.17984 121.453 4.9707C121.453 2.76156 119.662 0.970703 117.453 0.970703C115.244 0.970703 113.453 2.76156 113.453 4.9707C113.453 7.17984 115.244 8.9707 117.453 8.9707Z" fill="#347FF6"/>
<path d="M5.45312 36.9707C7.66226 36.9707 9.45312 35.1798 9.45312 32.9707C9.45312 30.7616 7.66226 28.9707 5.45312 28.9707C3.24399 28.9707 1.45312 30.7616 1.45312 32.9707C1.45312 35.1798 3.24399 36.9707 5.45312 36.9707Z" fill="#347FF6"/>
<path d="M33.4531 36.9707C35.6623 36.9707 37.4531 35.1798 37.4531 32.9707C37.4531 30.7616 35.6623 28.9707 33.4531 28.9707C31.244 28.9707 29.4531 30.7616 29.4531 32.9707C29.4531 35.1798 31.244 36.9707 33.4531 36.9707Z" fill="#347FF6"/>
<path d="M61.4531 36.9707C63.6623 36.9707 65.4531 35.1798 65.4531 32.9707C65.4531 30.7616 63.6623 28.9707 61.4531 28.9707C59.244 28.9707 57.4531 30.7616 57.4531 32.9707C57.4531 35.1798 59.244 36.9707 61.4531 36.9707Z" fill="#347FF6"/>
<path d="M89.4531 36.9707C91.6623 36.9707 93.4531 35.1798 93.4531 32.9707C93.4531 30.7616 91.6623 28.9707 89.4531 28.9707C87.244 28.9707 85.4531 30.7616 85.4531 32.9707C85.4531 35.1798 87.244 36.9707 89.4531 36.9707Z" fill="#347FF6"/>
<path d="M117.453 36.9707C119.662 36.9707 121.453 35.1798 121.453 32.9707C121.453 30.7616 119.662 28.9707 117.453 28.9707C115.244 28.9707 113.453 30.7616 113.453 32.9707C113.453 35.1798 115.244 36.9707 117.453 36.9707Z" fill="#347FF6"/>
<path d="M5.45312 64.9707C7.66226 64.9707 9.45312 63.1798 9.45312 60.9707C9.45312 58.7616 7.66226 56.9707 5.45312 56.9707C3.24399 56.9707 1.45312 58.7616 1.45312 60.9707C1.45312 63.1798 3.24399 64.9707 5.45312 64.9707Z" fill="#347FF6"/>
<path d="M33.4531 64.9707C35.6623 64.9707 37.4531 63.1798 37.4531 60.9707C37.4531 58.7616 35.6623 56.9707 33.4531 56.9707C31.244 56.9707 29.4531 58.7616 29.4531 60.9707C29.4531 63.1798 31.244 64.9707 33.4531 64.9707Z" fill="#347FF6"/>
<path d="M61.4531 64.9707C63.6623 64.9707 65.4531 63.1798 65.4531 60.9707C65.4531 58.7616 63.6623 56.9707 61.4531 56.9707C59.244 56.9707 57.4531 58.7616 57.4531 60.9707C57.4531 63.1798 59.244 64.9707 61.4531 64.9707Z" fill="#347FF6"/>
<path d="M89.4531 64.9707C91.6623 64.9707 93.4531 63.1798 93.4531 60.9707C93.4531 58.7616 91.6623 56.9707 89.4531 56.9707C87.244 56.9707 85.4531 58.7616 85.4531 60.9707C85.4531 63.1798 87.244 64.9707 89.4531 64.9707Z" fill="#347FF6"/>
<path d="M117.453 64.9707C119.662 64.9707 121.453 63.1798 121.453 60.9707C121.453 58.7616 119.662 56.9707 117.453 56.9707C115.244 56.9707 113.453 58.7616 113.453 60.9707C113.453 63.1798 115.244 64.9707 117.453 64.9707Z" fill="#347FF6"/>
<path d="M5.45312 92.9707C7.66226 92.9707 9.45312 91.1798 9.45312 88.9707C9.45312 86.7616 7.66226 84.9707 5.45312 84.9707C3.24399 84.9707 1.45312 86.7616 1.45312 88.9707C1.45312 91.1798 3.24399 92.9707 5.45312 92.9707Z" fill="#347FF6"/>
<path d="M33.4531 92.9707C35.6623 92.9707 37.4531 91.1798 37.4531 88.9707C37.4531 86.7616 35.6623 84.9707 33.4531 84.9707C31.244 84.9707 29.4531 86.7616 29.4531 88.9707C29.4531 91.1798 31.244 92.9707 33.4531 92.9707Z" fill="#347FF6"/>
<path d="M61.4531 92.9707C63.6623 92.9707 65.4531 91.1798 65.4531 88.9707C65.4531 86.7616 63.6623 84.9707 61.4531 84.9707C59.244 84.9707 57.4531 86.7616 57.4531 88.9707C57.4531 91.1798 59.244 92.9707 61.4531 92.9707Z" fill="#347FF6"/>
<path d="M89.4531 92.9707C91.6623 92.9707 93.4531 91.1798 93.4531 88.9707C93.4531 86.7616 91.6623 84.9707 89.4531 84.9707C87.244 84.9707 85.4531 86.7616 85.4531 88.9707C85.4531 91.1798 87.244 92.9707 89.4531 92.9707Z" fill="#347FF6"/>
<path d="M117.453 92.9707C119.662 92.9707 121.453 91.1798 121.453 88.9707C121.453 86.7616 119.662 84.9707 117.453 84.9707C115.244 84.9707 113.453 86.7616 113.453 88.9707C113.453 91.1798 115.244 92.9707 117.453 92.9707Z" fill="#347FF6"/>
<path d="M5.45312 120.971C7.66226 120.971 9.45312 119.18 9.45312 116.971C9.45312 114.762 7.66226 112.971 5.45312 112.971C3.24399 112.971 1.45312 114.762 1.45312 116.971C1.45312 119.18 3.24399 120.971 5.45312 120.971Z" fill="#347FF6"/>
<path d="M33.4531 120.971C35.6623 120.971 37.4531 119.18 37.4531 116.971C37.4531 114.762 35.6623 112.971 33.4531 112.971C31.244 112.971 29.4531 114.762 29.4531 116.971C29.4531 119.18 31.244 120.971 33.4531 120.971Z" fill="#347FF6"/>
<path d="M61.4531 120.971C63.6623 120.971 65.4531 119.18 65.4531 116.971C65.4531 114.762 63.6623 112.971 61.4531 112.971C59.244 112.971 57.4531 114.762 57.4531 116.971C57.4531 119.18 59.244 120.971 61.4531 120.971Z" fill="#347FF6"/>
<path d="M89.4531 120.971C91.6623 120.971 93.4531 119.18 93.4531 116.971C93.4531 114.762 91.6623 112.971 89.4531 112.971C87.244 112.971 85.4531 114.762 85.4531 116.971C85.4531 119.18 87.244 120.971 89.4531 120.971Z" fill="#347FF6"/>
<path d="M117.453 120.971C119.662 120.971 121.453 119.18 121.453 116.971C121.453 114.762 119.662 112.971 117.453 112.971C115.244 112.971 113.453 114.762 113.453 116.971C113.453 119.18 115.244 120.971 117.453 120.971Z" fill="#347FF6"/>
</g>
<defs>
<clipPath id="clip0_152_1708">
<rect width="120" height="120" fill="white" transform="translate(1.45312 0.970703)"/>
</clipPath>
</defs>
</svg>
