<svg width="517" height="533" viewBox="0 0 517 533" fill="none" xmlns="http://www.w3.org/2000/svg">
<path d="M17.9682 327.3C43.373 275.075 94.6218 240.127 125.31 201.231C155.749 162.017 165.891 119.16 193.633 78.4598C220.808 37.69 265.835 -0.609271 309.23 0.371508C352.626 1.35229 394.888 42.2559 433.591 79.2632C472.294 116.27 508.256 149.775 515.281 188.962C522.306 228.149 500.96 273.088 481.088 310.718C461.535 348.094 443.198 377.844 424.084 421.04C405.22 464.555 385.506 522.087 353.243 531.4C320.736 540.396 275.923 501.487 214.369 491.078C152.251 480.604 73.072 498.878 33.2303 473.546C-6.61138 448.215 -7.37039 378.96 17.9682 327.3Z" fill="#F2629B"/>
</svg>
