<svg width="94" height="79" viewBox="0 0 94 79" fill="none" xmlns="http://www.w3.org/2000/svg">
<path d="M81.8939 56.3915C73.9013 61.2526 63.8374 61.642 56.2645 64.2786C48.6986 66.9785 43.6137 71.8626 36.2912 74.9868C29.0408 78.1678 19.5451 79.5257 13.6548 75.7662C7.76442 72.0068 5.4661 63.0024 3.32249 54.8167C1.17888 46.6311 -0.88882 39.1431 1.51668 33.3145C3.92218 27.4859 10.7289 23.2599 16.7036 19.8884C22.6125 16.5241 27.6975 14.0782 34.0469 9.89877C40.3894 5.6558 48.0552 -0.390952 53.2989 1.061C58.5488 2.57563 61.3699 11.5265 68.9488 18.0652C76.5999 24.6597 89.0742 28.8357 92.3795 35.555C95.6847 42.2742 89.8287 51.6005 81.8939 56.3915Z" fill="#FBB055"/>
</svg>
