<svg width="511" height="368" viewBox="0 0 511 368" fill="none" xmlns="http://www.w3.org/2000/svg">
<path d="M99.9785 3.92229C151.915 -5.26298 204.938 13.7627 249.895 15.5706C294.954 17.0255 331.863 1.61959 376.575 0.29961C421.036 -1.47451 473.204 11.1907 495.63 43.6089C518.057 76.0272 510.537 128.908 503.982 177.095C497.426 225.281 491.984 269.584 466.929 295.65C441.874 321.716 397.458 329.998 359.2 335.465C321.299 341.03 289.653 343.422 247.709 352.415C205.663 361.762 152.862 377.961 128.807 359.215C104.855 340.121 109.549 286.43 84.3666 235.636C58.9298 184.393 3.26379 135.945 0.630205 93.1494C-2.00338 50.354 48.4931 12.8548 99.9785 3.92229Z" fill="#80B1FF"/>
</svg>
