<?xml version="1.0" encoding="UTF-8" standalone="no"?>
<svg xmlns="http://www.w3.org/2000/svg" height="93" id="Tilda_Icons_1ed_beaker" viewBox="0 0 87.939 93.5" width="87">
    <defs>
        <style>
            .cls-1,.cls-2{fill:none;stroke-miterlimit:10;stroke-width:.353px}.cls-1{stroke:#2bace2}.cls-2{stroke:#ec2227}
        </style>
    </defs>
    <path d="M84.2 92 72.7 69c-.6-1.1-.7-1.4-1-2L57.4 38.5V17.2h6.2a1.538 1.538 0 0 0 1.5-1.5V8a1.538 1.538 0 0 0-1.5-1.5H32.8A1.538 1.538 0 0 0 31.3 8v7.7a1.538 1.538 0 0 0 1.5 1.5H39v21.2L24.7 67c-.3.6-.5 1.1-1 2L12.2 92a1.6 1.6 0 0 0 .1 1.5 1.457 1.457 0 0 0 1.3.7h69.3a1.709 1.709 0 0 0 1.3-.7 1.59 1.59 0 0 0 0-1.5zM41.8 39.5a1.445 1.445 0 0 0 .2-.7V15.7a1.538 1.538 0 0 0-1.5-1.5h-6.2V9.5h27.8v4.7h-6.2a1.538 1.538 0 0 0-1.5 1.5v23.1a1.854 1.854 0 0 0 .2.7l14.1 28.1c-.5.3-.8.6-1.2.8a2.629 2.629 0 0 1-2 .8 2.792 2.792 0 0 1-2-.8 5.846 5.846 0 0 0-3.8-1.5 5.617 5.617 0 0 0-3.8 1.5 2.656 2.656 0 0 1-3.8 0 5.846 5.846 0 0 0-3.8-1.5 5.617 5.617 0 0 0-3.8 1.5 2.656 2.656 0 0 1-3.8 0 5.563 5.563 0 0 0-7.6 0 2.656 2.656 0 0 1-3.8 0 3.6 3.6 0 0 0-1.2-.8zM16 91.2l10.4-20.9a2.651 2.651 0 0 1 .6.5 5.846 5.846 0 0 0 3.8 1.5 5.617 5.617 0 0 0 3.8-1.5 2.656 2.656 0 0 1 3.8 0 5.563 5.563 0 0 0 7.6 0 2.656 2.656 0 0 1 3.8 0 5.846 5.846 0 0 0 3.8 1.5 5.617 5.617 0 0 0 3.8-1.5 2.56 2.56 0 0 1 1.9-.8 2.973 2.973 0 0 1 2 .8 5.563 5.563 0 0 0 7.6 0c.2-.2.4-.3.6-.5l10.4 20.9z" data-name="Path 350" id="Path_350" style="fill:#fff" transform="translate(-12.061 -6.5)"/>
</svg>
