<svg width="89" height="87" viewBox="0 0 89 87" fill="none" xmlns="http://www.w3.org/2000/svg">
<g clip-path="url(#clip0_203_753)">
<path d="M87.6361 52.9273L80.2636 47.9459V33.0017L87.6361 28.12C87.8387 27.9902 88.0076 27.8141 88.1288 27.6062C88.2501 27.3984 88.3202 27.1647 88.3335 26.9244C88.3326 26.6814 88.2677 26.443 88.1453 26.2331C88.0228 26.0232 87.8472 25.8493 87.6361 25.7289L49.6779 0.224171C49.4198 0.077254 49.128 0 48.8311 0C48.5341 0 48.2423 0.077254 47.9842 0.224171L1.15914 31.5073C0.981169 31.5857 0.838997 31.7279 0.760625 31.9058V32.0055C0.602142 32.2392 0.531553 32.5216 0.56137 32.8025V60.2001C0.56223 60.4431 0.627155 60.6816 0.749597 60.8915C0.872038 61.1014 1.04766 61.2753 1.25876 61.3957L39.217 86.7011C39.4425 86.8857 39.7227 86.9908 40.014 87C40.3085 87.008 40.5944 86.9008 40.811 86.7011L87.7357 55.418C87.9383 55.2882 88.1072 55.1121 88.2285 54.9043C88.3497 54.6964 88.4198 54.4627 88.4331 54.2225C88.4071 53.9603 88.3218 53.7075 88.1837 53.4831C88.0457 53.2587 87.8584 53.0687 87.6361 52.9273ZM48.8809 3.31263L84.1491 26.8248L78.3707 30.6107C78.0718 30.7165 77.7998 30.8865 77.5737 31.1088L39.9144 56.215L11.6201 37.3854C11.5204 37.2857 11.4208 37.2857 11.4208 37.1861L4.64611 32.7028L48.8809 3.31263ZM12.1182 41.3705L39.0177 59.3035C39.2758 59.4504 39.5676 59.5277 39.8645 59.5277C40.1615 59.5277 40.4533 59.4504 40.7114 59.3035L77.2748 34.8947V47.1489L40.1136 71.6573L12.1182 53.7243V41.3705ZM39.9144 83.6127L3.45058 59.3035V35.5921L9.22899 39.3779V54.5213C9.24102 54.7756 9.30991 55.024 9.4306 55.2481C9.5513 55.4723 9.72071 55.6665 9.92639 55.8165L39.4162 74.7458C39.5295 74.8297 39.6582 74.8905 39.7949 74.9247C39.9317 74.9589 40.0738 74.9658 40.2132 74.945C40.4904 74.9383 40.7626 74.8703 41.0103 74.7458L78.2711 50.2373L84.1491 54.2225L39.9144 83.6127Z" fill="white"/>
<path d="M42.4051 16.9593L60.1389 29.1139C60.3725 29.284 60.648 29.3873 60.9359 29.4128C61.1806 29.4208 61.4226 29.3596 61.6341 29.2363C61.8456 29.1129 62.018 28.9324 62.1314 28.7154C62.2469 28.5533 62.3283 28.3695 62.3708 28.1751C62.4133 27.9807 62.416 27.7797 62.3788 27.5843C62.3415 27.3888 62.2651 27.2029 62.1541 27.0377C62.0431 26.8725 61.8998 26.7316 61.7329 26.6232L44.0988 14.4686C43.7684 14.2546 43.3673 14.1784 42.9814 14.2564C42.5955 14.3344 42.2555 14.5603 42.0342 14.8859C41.8128 15.2114 41.7277 15.6107 41.797 15.9982C41.8663 16.3858 42.0846 16.7307 42.4051 16.9593Z" fill="white"/>
</g>
<defs>
<clipPath id="clip0_203_753">
<rect width="88" height="87" fill="white" transform="translate(0.5)"/>
</clipPath>
</defs>
</svg>
