<?xml version="1.0" encoding="UTF-8" standalone="no"?>
<svg xmlns="http://www.w3.org/2000/svg" height="91" viewBox="0 0 92.327 91.548" width="92">
    <path d="M96.063 15.817a1.5 1.5 0 0 0-1.363-.958l-8.89-.208.2-8.892a1.5 1.5 0 0 0-2.537-1.118L72.851 14.788a1.5 1.5 0 0 0-.465 1.049l-.228 9.494-2.631 2.631a39.189 39.189 0 1 0 2.121 2.121l2.313-2.313L84 28h.035a1.5 1.5 0 0 0 1.035-.415L95.7 17.444a1.5 1.5 0 0 0 .363-1.627zM79.085 56.656a36.179 36.179 0 1 1-11.679-26.574l-5.552 5.552a28.317 28.317 0 1 0 2.121 2.12l5.551-5.554a36 36 0 0 1 9.559 24.456zm-27.092 0a9.057 9.057 0 1 1-3.8-7.351L41.9 55.589a1.5 1.5 0 0 0 2.122 2.121l6.289-6.289a8.977 8.977 0 0 1 1.682 5.23zm-1.665-9.496a12.078 12.078 0 1 0 2.121 2.121l9.4-9.4a25.319 25.319 0 1 1-2.121-2.12zm33.119-22.169-6.555-.153 4.753-4.753a1.5 1.5 0 1 0-2.121-2.121l-4.292 4.292.137-5.725 4.868-4.645 2.691-2.572-.153 6.77a1.5 1.5 0 0 0 1.465 1.533l6.768.158z" style="fill:#fff" transform="translate(-3.838 -4.225)"/>
</svg>
