<?xml version="1.0" encoding="UTF-8" standalone="no"?>
<svg xmlns="http://www.w3.org/2000/svg" height="96" id="Tilda_Icons_1ed_timer" viewBox="0 0 85.65 96.3" width="85">
    <defs>
        <style>
            .cls-1{fill:#fff}
        </style>
    </defs>
    <path class="cls-1" d="M56.6 16.5v-4.4h4.1a1.538 1.538 0 0 0 1.5-1.5V3.4a1.538 1.538 0 0 0-1.5-1.5H43.2a1.538 1.538 0 0 0-1.5 1.5v7.2a1.538 1.538 0 0 0 1.5 1.5h4.1v4.4a41.3 41.3 0 0 0-24.8 12.2L20.8 27l2.8-2.8a1.45 1.45 0 0 0 0-2.1l-5.8-5.8a1.45 1.45 0 0 0-2.1 0L7.8 24a1.45 1.45 0 0 0 0 2.1l5.8 5.8a1.5 1.5 0 0 0 1.1.4 1.5 1.5 0 0 0 1.1-.4l2.9-2.9 1.9 1.9A40.637 40.637 0 0 0 11 57.2a41 41 0 1 0 45.6-40.7zM14.7 28.8 11 25l5.6-5.6 3.7 3.7-2.2 2.2-1.1 1.1zM48.8 9.1h-4.1V4.9h14.5v4.2h-4.1a1.538 1.538 0 0 0-1.5 1.5v5.7h-3.2v-5.7a1.624 1.624 0 0 0-1.6-1.5zm3.1 86.1a38 38 0 0 1 0-76 19.269 19.269 0 0 1 2.4.1c.4 0 .8.1 1.2.1a37.985 37.985 0 0 1-3.6 75.8z" data-name="Path 355" id="Path_355" transform="translate(-7.35 -1.9)"/>
    <path class="cls-1" d="m73.5 32.6-.3-.3A32.348 32.348 0 0 0 52 24.5a32.611 32.611 0 1 0 21.5 8.1zM51.9 87a29.7 29.7 0 1 1 18.2-53.1L53.9 52.5a6.456 6.456 0 0 0-1.9-.4 5.1 5.1 0 1 0 0 10.2 5.037 5.037 0 0 0 5-5.1 5.376 5.376 0 0 0-.8-2.8l16.3-18.7a29.421 29.421 0 0 1 9.2 21.5A29.875 29.875 0 0 1 51.9 87zM54 57.2a2.1 2.1 0 1 1-4.2 0 2.1 2.1 0 1 1 4.2 0z" data-name="Path 356" id="Path_356" transform="translate(-7.35 -1.9)"/>
</svg>
